#!OML:ASF H:\BabyWalks\Project 1\Capture day 1\Session 1\baby.ASF
:FULLY-SPECIFIED
:DEGREES
320
root -27.5624 17.7467 -2.83762 11.4065 89.4249 -3.96674
lowerback 19.252 -1.26042 -1.3442
upperback 6.26767 -1.33451 2.75526
thorax -3.90434 -0.514076 3.98567
lowerneck -2.61608 0.900286 3.7728
upperneck 3.91479 1.40483 -7.55327
head 1.80184 0.619602 -3.08005
rclavicle 7.35503e-015 -2.54444e-014
rhumerus -46.1369 12.9563 -84.0191
rradius 39.7449
rwrist 1.913
rhand -4.72103 -15.841
rfingers 7.12502
rthumb 21.0614 -44.7172
lclavicle 7.35503e-015 -2.54444e-014
lhumerus -45.2114 4.43745 76.5934
lradius 48.8168
lwrist 3.5916
lhand -10.6213 9.30767
lfingers 7.12502
lthumb 15.3853 38.7152
rfemur -31.5719 2.03007 19.7448
rtibia 35.5293
rfoot -19.2846 -11.6949
rtoes -2.60998
lfemur -6.91738 5.23399 -18.565
ltibia 32.0273
lfoot -16.1411 -7.55485
ltoes -28.1829
321
root -27.3938 17.7277 -2.80146 -74.128 90.3508 -89.3124
lowerback 19.3601 -1.25211 -1.07949
upperback 6.28649 -1.26044 2.83962
thorax -3.9512 -0.472647 3.91125
lowerneck -2.73814 0.696034 3.80993
upperneck 3.99285 1.14601 -7.78314
head 1.83694 0.485359 -3.17402
rclavicle -3.97569e-016 5.08889e-014
rhumerus -46.3161 12.7631 -84.0164
rradius 39.7606
rwrist 1.89721
rhand -4.34946 -15.8526
rfingers 7.12502
rthumb 21.4183 -44.6887
lclavicle -3.97569e-016 5.08889e-014
lhumerus -45.4498 4.38082 76.6232
lradius 48.691
lwrist 3.55095
lhand -10.577 9.19397
lfingers 7.12502
lthumb 15.428 38.5982
rfemur -30.7474 2.02626 19.5022
rtibia 35.728
rfoot -19.5282 -12.2471
rtoes -1.87143
lfemur -8.01474 5.6232 -18.4562
ltibia 34.9627
lfoot -14.5717 -9.01885
ltoes -29.1272
322
root -27.2257 17.709 -2.76409 -30.7727 90.9115 -45.7437
lowerback 19.4799 -1.23729 -0.732788
upperback 6.32213 -1.15781 2.95326
thorax -3.98904 -0.416402 3.81484
lowerneck -2.8454 0.482152 3.85539
upperneck 4.022 0.870692 -7.99993
head 1.85145 0.343994 -3.26541
rclavicle -6.36111e-015 -6.99722e-014
rhumerus -46.4843 12.5604 -83.9967
rradius 39.8054
rwrist 1.82849
rhand -3.93672 -15.8719
rfingers 7.12502
rthumb 21.8147 -44.6624
lclavicle -6.36111e-015 -6.99722e-014
lhumerus -45.6813 4.31237 76.6676
lradius 48.5833
lwrist 3.53356
lhand -10.4762 9.06767
lfingers 7.12502
lthumb 15.525 38.4644
rfemur -29.8695 1.96356 19.3916
rtibia 35.924
rfoot -19.9657 -12.8519
rtoes -1.54145
lfemur -9.2395 5.86946 -18.2369
ltibia 38.0611
lfoot -12.7254 -10.3478
ltoes -29.3797
323
root -27.0583 17.6908 -2.7265 -17.4046 91.5374 -32.1405
lowerback 19.601 -1.21656 -0.281287
upperback 6.38097 -1.02122 3.11445
thorax -4.00525 -0.342547 3.70125
lowerneck -2.93265 0.265571 3.8967
upperneck 3.99295 0.587962 -8.2031
head 1.84173 0.200151 -3.35096
rclavicle -2.50469e-014 2.70347e-014
rhumerus -46.6187 12.3825 -83.9508
rradius 39.8575
rwrist 1.73612
rhand -3.51488 -15.8801
rfingers 7.12502
rthumb 22.2197 -44.6229
lclavicle -2.50469e-014 2.70347e-014
lhumerus -45.9079 4.26586 76.7366
lradius 48.4958
lwrist 3.53826
lhand -10.3571 8.9629
lfingers 7.12502
lthumb 15.6398 38.3507
rfemur -28.9389 1.84295 19.4624
rtibia 36.0658
rfoot -20.5097 -13.4699
rtoes -1.57441
lfemur -10.5733 5.96921 -17.8745
ltibia 41.2834
lfoot -10.7192 -11.4354
ltoes -28.9017
324
root -26.8911 17.6733 -2.68937 -7.65626 92.1405 -22.1373
lowerback 19.727 -1.19634 0.303084
upperback 6.45718 -0.852934 3.32737
thorax -4.00727 -0.251664 3.55966
lowerneck -2.99387 0.055497 3.93327
upperneck 3.91187 0.310135 -8.38797
head 1.80953 0.0601349 -3.42835
rclavicle -4.37326e-015 -1.90833e-014
rhumerus -46.7126 12.2577 -83.8905
rradius 39.8995
rwrist 1.65542
rhand -3.10419 -15.8756
rfingers 7.12502
rthumb 22.614 -44.5709
lclavicle -4.37326e-015 -1.90833e-014
lhumerus -46.1541 4.25866 76.8194
lradius 48.4308
lwrist 3.56522
lhand -10.2355 8.87924
lfingers 7.12502
lthumb 15.7568 38.2579
rfemur -27.9461 1.67142 19.7515
rtibia 36.1031
rfoot -21.1088 -14.0547
rtoes -1.9174
lfemur -11.9906 5.96038 -17.3375
ltibia 44.5876
lfoot -8.75322 -12.2399
ltoes -27.8243
325
root -26.7239 17.6559 -2.65389 1.33992 92.7112 -12.8686
lowerback 19.8592 -1.17554 1.01982
upperback 6.54748 -0.651091 3.59036
thorax -3.99777 -0.142472 3.38837
lowerneck -3.03599 -0.137439 3.9741
upperneck 3.79321 0.0521102 -8.56414
head 1.76218 -0.0689421 -3.50235
rclavicle -2.46493e-014 -3.97569e-015
rhumerus -46.7499 12.2031 -83.8135
rradius 39.9138
rwrist 1.60175
rhand -2.70522 -15.8528
rfingers 7.12502
rthumb 22.9968 -44.501
lclavicle -2.46493e-014 -3.97569e-015
lhumerus -46.4371 4.29963 76.9134
lradius 48.3852
lwrist 3.6086
lhand -10.1493 8.83849
lfingers 7.12502
lthumb 15.8399 38.2105
rfemur -26.8886 1.45659 20.2634
rtibia 36.0012
rfoot -21.6316 -14.5673
rtoes -2.36374
lfemur -13.4637 5.90663 -16.6276
ltibia 47.9258
lfoot -7.05919 -12.7796
ltoes -26.3363
326
root -26.5566 17.6379 -2.62131 9.94381 93.246 -3.99238
lowerback 19.9739 -1.14473 1.83208
upperback 6.65047 -0.411987 3.8968
thorax -3.96403 -0.0132309 3.20021
lowerneck -3.06362 -0.303863 4.02103
upperneck 3.6496 -0.172812 -8.73546
head 1.70578 -0.180724 -3.57453
rclavicle -3.26007e-014 -3.4191e-014
rhumerus -46.7094 12.2229 -83.7062
rradius 39.8853
rwrist 1.594
rhand -2.33209 -15.8161
rfingers 7.12502
rthumb 23.3548 -44.4192
lclavicle -3.26007e-014 -3.4191e-014
lhumerus -46.74 4.39973 77.0215
lradius 48.3113
lwrist 3.64991
lhand -10.1184 8.83696
lfingers 7.12502
lthumb 15.8696 38.2066
rfemur -25.7977 1.21882 20.9619
rtibia 35.7663
rfoot -22.0589 -14.8937
rtoes -2.66617
lfemur -14.9821 5.85804 -15.7831
ltibia 51.2517
lfoot -5.74598 -13.0622
ltoes -24.3877
327
root -26.3889 17.6195 -2.59174 17.8721 93.7546 4.19404
lowerback 20.067 -1.09913 2.68315
upperback 6.75238 -0.143274 4.22651
thorax -3.91642 0.131891 3.00823
lowerneck -3.06873 -0.441682 4.08117
upperneck 3.50281 -0.360392 -8.90555
head 1.64647 -0.27314 -3.64772
rclavicle 1.59028e-015 1.19271e-014
rhumerus -46.5963 12.3055 -83.5682
rradius 39.8087
rwrist 1.63985
rhand -1.99025 -15.7804
rfingers 7.12502
rthumb 23.6827 -44.3414
lclavicle 1.59028e-015 1.19271e-014
lhumerus -47.0929 4.5436 77.136
lradius 48.2214
lwrist 3.66659
lhand -10.1449 8.87755
lfingers 7.12502
lthumb 15.8442 38.2493
rfemur -24.682 0.963318 21.7819
rtibia 35.4118
rfoot -22.435 -15.1364
rtoes -3.12758
lfemur -16.5266 5.84503 -14.8713
ltibia 54.5053
lfoot -4.96923 -13.1393
ltoes -22.1973
328
root -26.2209 17.5982 -2.56544 24.8372 94.2131 11.3916
lowerback 20.1484 -1.03439 3.51132
upperback 6.8446 0.145619 4.54857
thorax -3.86817 0.287394 2.81717
lowerneck -3.08955 -0.537251 4.15782
upperneck 3.39197 -0.490853 -9.07085
head 1.60558 -0.337723 -3.7221
rclavicle -1.59028e-014 -2.8625e-014
rhumerus -46.4033 12.4283 -83.3994
rradius 39.679
rwrist 1.76034
rhand -1.69038 -15.7485
rfingers 7.12502
rthumb 23.9703 -44.2721
lclavicle -1.59028e-014 -2.8625e-014
lhumerus -47.5018 4.72316 77.239
lradius 48.1152
lwrist 3.63781
lhand -10.2202 8.9846
lfingers 7.12502
lthumb 15.7716 38.3621
rfemur -23.5693 0.719685 22.6352
rtibia 34.9766
rfoot -22.7708 -15.3035
rtoes -3.50143
lfemur -18.0878 5.92419 -13.971
ltibia 57.636
lfoot -4.70589 -13.0588
ltoes -19.8921
329
root -26.0518 17.5782 -2.5426 30.7159 94.5839 17.4516
lowerback 20.1889 -0.929144 4.24243
upperback 6.92237 0.462309 4.84567
thorax -3.8097 0.455549 2.64859
lowerneck -3.09422 -0.605779 4.25336
upperneck 3.30617 -0.5846 -9.23154
head 1.57237 -0.383754 -3.79815
rclavicle 3.4191e-014 7.15625e-014
rhumerus -46.1298 12.5424 -83.1709
rradius 39.5048
rwrist 1.94918
rhand -1.44153 -15.7308
rfingers 7.12502
rthumb 24.2089 -44.2228
lclavicle 3.4191e-014 7.15625e-014
lhumerus -47.9344 4.91258 77.3448
lradius 47.9403
lwrist 3.53217
lhand -10.3336 9.13194
lfingers 7.12502
lthumb 15.6624 38.518
rfemur -22.5008 0.510204 23.4297
rtibia 34.4898
rfoot -23.0887 -15.3191
rtoes -3.88842
lfemur -19.6679 6.11598 -13.1758
ltibia 60.5758
lfoot -4.84459 -12.8536
ltoes -17.7203
330
root -25.8815 17.5599 -2.52253 35.5197 94.8394 22.3795
lowerback 20.2051 -0.785154 4.83527
upperback 6.97353 0.793726 5.09157
thorax -3.76352 0.628361 2.50084
lowerneck -3.08639 -0.650938 4.36686
upperneck 3.26074 -0.645678 -9.38195
head 1.55231 -0.413523 -3.87412
rclavicle 2.70347e-014 3.33958e-014
rhumerus -45.7903 12.6162 -82.8894
rradius 39.2932
rwrist 2.2087
rhand -1.28189 -15.7357
rfingers 7.12502
rthumb 24.362 -44.2072
lclavicle 2.70347e-014 3.33958e-014
lhumerus -48.4067 5.09468 77.4349
lradius 47.712
lwrist 3.33135
lhand -10.4551 9.3232
lfingers 7.12502
lthumb 15.5453 38.7184
rfemur -21.4892 0.353025 24.1008
rtibia 33.9809
rfoot -23.4082 -15.251
rtoes -4.19856
lfemur -21.2589 6.40521 -12.5516
ltibia 63.2723
lfoot -5.30519 -12.5451
ltoes -15.7837
331
root -25.7091 17.5448 -2.50447 39.3596 94.9706 26.2854
lowerback 20.1846 -0.601703 5.26218
upperback 7.00629 1.13284 5.28145
thorax -3.71637 0.801924 2.38563
lowerneck -3.09191 -0.666945 4.48612
upperneck 3.27172 -0.665505 -9.5118
head 1.55612 -0.423635 -3.94443
rclavicle -7.15625e-015 1.27222e-014
rhumerus -45.3778 12.6048 -82.5399
rradius 39.0537
rwrist 2.54441
rhand -1.25174 -15.7658
rfingers 7.12502
rthumb 24.3909 -44.2334
lclavicle -7.15625e-015 1.27222e-014
lhumerus -48.8836 5.26894 77.5145
lradius 47.4125
lwrist 3.01458
lhand -10.5514 9.55324
lfingers 7.12502
lthumb 15.4526 38.9556
rfemur -20.5273 0.260966 24.6144
rtibia 33.4481
rfoot -23.7246 -15.1201
rtoes -4.42358
lfemur -22.8535 6.77086 -12.1336
ltibia 65.6728
lfoot -5.97222 -12.1762
ltoes -14.1432
332
root -25.5341 17.5339 -2.48727 42.1796 94.9975 29.1324
lowerback 20.1589 -0.395298 5.53249
upperback 7.01464 1.46257 5.40738
thorax -3.69236 0.967318 2.29287
lowerneck -3.1007 -0.663817 4.60495
upperneck 3.33608 -0.657781 -9.60755
head 1.58004 -0.42054 -4.0031
rclavicle 3.49861e-014 6.52014e-014
rhumerus -44.9125 12.4755 -82.1351
rradius 38.8006
rwrist 2.94526
rhand -1.38374 -15.8271
rfingers 7.12502
rthumb 24.2644 -44.3117
lclavicle 3.49861e-014 6.52014e-014
lhumerus -49.3716 5.41277 77.5758
lradius 47.0565
lwrist 2.59454
lhand -10.5911 9.80755
lfingers 7.12502
lthumb 15.4144 39.2129
rfemur -19.583 0.230395 24.9649
rtibia 32.8887
rfoot -24.0461 -14.9725
rtoes -4.56746
lfemur -24.4353 7.15825 -11.9286
ltibia 67.7441
lfoot -6.75899 -11.7781
ltoes -12.8654
333
root -25.3567 17.5282 -2.47107 44.1342 94.9384 31.0774
lowerback 20.1169 -0.17262 5.66599
upperback 7.00858 1.77848 5.48159
thorax -3.67636 1.12309 2.22526
lowerneck -3.12425 -0.645526 4.71761
upperneck 3.44285 -0.628233 -9.67508
head 1.62227 -0.407281 -4.05109
rclavicle 7.95139e-016 0
rhumerus -44.3962 12.2157 -81.6676
rradius 38.5494
rwrist 3.38881
rhand -1.74626 -15.924
rfingers 7.12502
rthumb 23.9167 -44.4546
lclavicle 7.95139e-016 0
lhumerus -49.8443 5.5305 77.6334
lradius 46.6425
lwrist 2.08719
lhand -10.5471 10.0648
lfingers 7.12502
lthumb 15.4567 39.4668
rfemur -18.6475 0.252259 25.1698
rtibia 32.286
rfoot -24.3479 -14.8267
rtoes -4.67393
lfemur -26.0066 7.51966 -11.9231
ltibia 69.4649
lfoot -7.60991 -11.3701
ltoes -11.8676
334
root -25.1769 17.5277 -2.45554 45.3346 94.8317 32.2432
lowerback 20.079 0.0478684 5.71013
upperback 6.98363 2.06933 5.50889
thorax -3.68353 1.26404 2.16346
lowerneck -3.15306 -0.61669 4.81203
upperneck 3.58101 -0.583695 -9.70184
head 1.67692 -0.386814 -4.08127
rclavicle 3.4191e-014 4.29375e-014
rhumerus -43.8542 11.8306 -81.1699
rradius 38.3117
rwrist 3.86546
rhand -2.4066 -16.0675
rfingers 7.12502
rthumb 23.2834 -44.6797
lclavicle 3.4191e-014 4.29375e-014
lhumerus -50.3023 5.61889 77.6787
lradius 46.1742
lwrist 1.52999
lhand -10.3829 10.3042
lfingers 7.12502
lthumb 15.6149 39.694
rfemur -17.6967 0.309219 25.2694
rtibia 31.6184
rfoot -24.6273 -14.6947
rtoes -4.71393
lfemur -27.5567 7.80766 -12.0742
ltibia 70.829
lfoot -8.49277 -10.949
ltoes -11.3867
